<?xml version="1.0" encoding="UTF-8"?>
<!DOCTYPE svg PUBLIC "-//W3C//DTD SVG 1.1//EN" "http://www.w3.org/Graphics/SVG/1.1/DTD/svg11.dtd">
<!-- Creator: CorelDRAW X7 -->
<svg xmlns="http://www.w3.org/2000/svg" xml:space="preserve" width="260mm" height="162mm" version="1.1" shape-rendering="geometricPrecision" text-rendering="geometricPrecision" image-rendering="optimizeQuality" fill-rule="evenodd" clip-rule="evenodd"
viewBox="0 0 235 146"
 xmlns:xlink="http://www.w3.org/1999/xlink">
 <defs>
    <linearGradient id="id0" gradientUnits="userSpaceOnUse" x1="-0" y1="73.1324" x2="234.746" y2="73.1324">
     <stop offset="0" stop-opacity="1" stop-color="#FFDA69"/>
     <stop offset="1" stop-opacity="1" stop-color="#FF7E33"/>
    </linearGradient>
 </defs>
 <g id="Layer_x0020_1">
  <metadata id="CorelCorpID_0Corel-Layer"/>
  <g id="_2702717110992">
   <polygon fill="url(#id0)" points="0,0 235,0 235,104 0,146 "/>
   <g>
    <polygon fill="#F2833F" fill-opacity="0.211765" points="0,17 22,17 33,17 33,39 22,39 22,61 33,61 33,84 22,84 0,84 0,61 0,39 "/>
    <polygon fill="#F2833F" fill-opacity="0.211765" points="38,17 60,17 60,84 38,84 "/>
    <polygon fill="#F2833F" fill-opacity="0.211765" points="75,17 98,17 98,61 98,84 75,84 64,84 64,61 75,61 "/>
    <polygon fill="#F2833F" fill-opacity="0.211765" points="75,0 98,0 98,14 75,14 "/>
    <polygon fill="#F2833F" fill-opacity="0.211765" points="0,0 60,0 60,14 0,14 "/>
   </g>
  </g>
 </g>
</svg>
