<?xml version="1.0" encoding="UTF-8"?>
<!DOCTYPE svg PUBLIC "-//W3C//DTD SVG 1.1//EN" "http://www.w3.org/Graphics/SVG/1.1/DTD/svg11.dtd">
<!-- Creator: CorelDRAW X7 -->
<svg xmlns="http://www.w3.org/2000/svg" xml:space="preserve" width="547.575mm" height="387.861mm" version="1.1" shape-rendering="geometricPrecision" text-rendering="geometricPrecision" image-rendering="optimizeQuality" fill-rule="evenodd" clip-rule="evenodd"
viewBox="0 0 91 64"
 xmlns:xlink="http://www.w3.org/1999/xlink">
 <g id="Layer_x0020_1">
  <metadata id="CorelCorpID_0Corel-Layer"/>
  <g id="_2101308199792">
   <g>
    <path fill="#EB961E" d="M35 45l-3 0 1 -2 2 0 0 2zm7 0l-2 0 1 -2 2 0 -1 2zm-2 0l-2 0 0 -2c0,0 0,0 2,0l0 2zm5 0l-2 0 0 -2 2 0 0 2zm-8 0l-2 0 0 -2 3 0c-1,0 -1,2 -1,2zm36 -21c0,0 -1,2 -1,2l0 0c0,0 -5,5 -5,5 -2,2 -3,3 -5,5 -2,1 -6,4 -7,1 -2,-1 -1,-5 -2,-7 0,-1 0,-1 0,-1 -1,0 -1,0 -1,1 -1,0 -1,0 -1,0l-2 2c0,0 0,1 0,1 -1,0 -2,1 -3,2 -1,0 -2,-1 -2,-2 1,0 1,0 2,0 -1,0 -1,0 -1,-1 -1,-1 -1,-5 -2,-5 -1,-1 -4,4 -4,4l0 -1c-1,1 -2,2 -2,3 0,-1 1,-2 1,-3l-1 1c1,-1 3,-4 4,-4 0,-1 0,0 1,-1 0,-1 1,-1 1,-1 3,-1 2,9 5,6 1,-1 3,-4 5,-5 1,-1 2,0 2,2 0,2 0,7 1,8 2,1 7,-3 8,-4l5 -4c0,-1 3,-4 3,-4l0 2 1 -2zm-38 0c0,0 0,1 0,1 1,0 1,0 1,1 0,0 0,0 -1,-1l0 0 -4 21 41 0c0,0 6,-28 6,-28l-42 0 -1 6z"/>
    <path fill="#3A454C" d="M78 29c0,0 1,0 1,0 1,0 1,0 1,0 0,1 -1,5 -1,6 0,1 0,2 -1,3 0,0 -1,0 -2,0 0,0 -1,0 -1,-1 0,0 1,-5 2,-6 0,-1 0,-2 1,-2zm-47 -10c0,1 1,1 1,1 1,0 1,0 1,0 1,1 1,0 1,1 0,0 0,1 1,1 0,1 0,2 0,2l1 -6 42 0c0,0 -6,28 -6,28l-41 0 4 -21 -4 0c-1,0 -1,0 -1,0 0,-1 0,-1 0,-1 0,1 -1,1 -1,2l-2 12c0,1 -2,8 -2,8l0 0c0,1 0,1 0,2l0 2c0,1 0,1 0,1 1,1 1,1 2,1l5 0c2,0 5,0 7,0 0,0 1,0 1,0 0,0 0,0 1,0 0,0 0,0 0,0 0,0 9,0 9,0l25 0c1,0 1,-1 1,-1 0,0 0,0 0,0 1,0 1,0 1,0 0,-1 0,-3 1,-4l2 -9c0,-1 0,-1 0,-1 0,0 0,-1 0,-1l1 -3c0,-1 0,-3 0,-4 1,-2 2,-6 2,-8l0 -2c1,-2 1,-3 0,-4 0,0 -1,0 -2,0l-45 0c-2,0 -4,-1 -5,2 0,1 0,2 0,2z"/>
    <path fill="#F4F4F4" d="M25 59c0,0 1,1 1,1 1,0 1,0 1,0 0,1 -2,1 -3,1 -4,0 -4,0 -3,-2 -1,0 -2,0 -3,0 0,0 -1,0 -1,0 -1,0 -1,1 -2,1 1,0 1,0 1,0 0,0 1,0 1,0 0,0 0,0 0,0 0,1 -2,1 -3,1 0,0 -3,0 -3,0 -1,0 0,0 0,-1 -2,0 -8,1 -10,1 -1,0 -1,0 -1,1 0,0 1,0 2,0 2,1 3,1 6,1l9 1c0,0 0,0 0,0 1,0 1,0 1,0 0,0 0,0 1,0 0,0 1,0 1,0 1,0 1,0 2,0 0,0 1,0 1,0 2,0 3,0 5,0 0,0 2,0 2,0 1,0 1,0 2,0l13 0c2,0 4,0 6,0l8 0c0,0 0,0 1,0 1,0 5,0 6,0l3 0c2,0 4,0 6,0 0,0 0,0 0,0l2 -1c1,0 1,0 1,0l6 0c1,0 6,-1 7,-1 0,-1 0,-1 -1,-1 0,0 -1,0 -1,0l-2 -1c-1,0 -2,0 -3,0 0,0 -1,0 -2,0l0 1 -20 0 -33 0c0,0 0,-1 0,-2l11 0 -1 0 -2 0c-2,0 -10,0 -12,0z"/>
    <path fill="#263137" d="M42 56c0,1 -1,2 -1,2l-1 1c-1,1 -4,1 -5,1 -2,0 -4,0 -6,0l0 1 33 0c0,-1 0,-1 0,-2l11 0c0,0 1,-3 2,-3 0,0 2,0 2,0l-35 0c0,0 0,0 0,0 0,0 0,0 0,0z"/>
    <path fill="#FEFEFE" d="M72 26l0 -2c0,0 -3,3 -3,4l-5 4c-1,1 -6,5 -8,4 -1,-1 -1,-6 -1,-8 0,-2 -1,-3 -2,-2 -2,1 -4,4 -5,5 -3,3 -2,-7 -5,-6 0,0 -1,0 -1,1 -1,1 -1,0 -1,1 -1,0 -3,3 -4,4l1 -1c0,1 -1,2 -1,3 0,-1 1,-2 2,-3l0 1c0,0 3,-5 4,-4 1,0 1,4 2,5 0,1 0,1 1,1 -1,0 -1,0 -2,0 0,1 1,2 2,2 1,-1 2,-2 3,-2 0,0 0,-1 0,-1l2 -2c0,0 0,0 1,0 0,-1 0,-1 1,-1 0,0 0,0 0,1 1,2 0,6 2,7 1,3 5,0 7,-1 2,-2 3,-3 5,-5 0,0 5,-5 5,-5l0 0c0,0 1,-2 1,-2l-1 2z"/>
    <path fill="#515B60" d="M77 56c0,0 -2,0 -2,0 -1,0 -2,3 -2,3l-11 0c0,1 0,1 0,2l20 0 0 -1 0 -4 -3 0c0,0 0,0 0,0 2,0 2,3 0,3 0,0 0,0 0,0 0,0 0,0 0,0l0 1c0,0 0,0 0,0 -1,0 -2,0 -2,-1 -1,-1 0,-2 0,-3 0,0 0,0 0,0 0,-1 0,0 0,-1l0 1z"/>
    <path fill="#515A5E" d="M82 33l-1 3c0,0 0,0 0,0l-1 6c0,1 0,1 1,1 1,0 1,0 2,-2 0,-1 0,-4 0,-4l1 -5c0,-1 1,-5 1,-6 1,-1 0,-1 -1,-1 -1,0 -1,1 -1,2l-1 6z"/>
    <path fill="#616A6E" d="M76 37c0,-1 1,-2 1,-2 0,-1 0,-1 0,-2 0,-1 0,-1 1,-1 1,0 1,0 0,3 0,2 0,2 -1,2 0,0 0,0 -1,0zm4 -6c-1,2 -3,2 -3,0 0,-1 1,-1 1,-1 1,0 2,0 2,1zm-2 -2c-1,0 -1,1 -1,2 -1,1 -2,6 -2,6 0,1 1,1 1,1 1,0 2,0 2,0 1,-1 1,-2 1,-3 0,-1 1,-5 1,-6 0,0 0,0 -1,0 0,0 -1,0 -1,0z"/>
    <path fill="#7B8488" d="M37 59l2 0 1 0 -11 0c0,1 0,2 0,2l0 -1c2,0 4,0 6,0 1,0 4,0 5,-1l1 -1c0,0 0,0 0,0 -1,-1 0,-2 0,-2 1,0 1,0 1,0 0,0 0,0 0,0 0,0 0,0 0,0 0,-1 -1,-3 -1,-3 0,0 0,0 -1,0 0,0 -1,0 -1,0 0,1 1,3 1,3 0,0 -1,1 -1,1 0,0 0,1 0,2 0,0 -2,0 -2,0z"/>
    <path fill="#7B8488" d="M76 53c0,1 1,2 1,2 0,1 0,0 0,1 0,0 0,0 0,0 0,1 -1,2 0,3 0,1 1,1 2,1 0,0 0,0 0,0l0 -1c0,0 0,0 0,0 0,0 0,0 0,0 -2,0 -1,-3 0,-3 0,0 0,0 0,0 0,-1 0,-1 0,-2 0,0 0,-1 0,-1 -1,0 -2,0 -2,0 -1,0 -1,0 -1,0z"/>
    <path fill="#62696C" d="M76 51c0,1 0,2 0,2l0 0c0,0 0,0 1,0 0,0 1,0 2,0 0,0 0,0 0,-1l-1 -5c-1,1 -1,3 -1,4 0,0 0,0 -1,0 0,0 0,0 0,0z"/>
    <path fill="#959B9E" d="M79 59c2,0 2,-3 0,-3 -1,0 -2,3 0,3z"/>
    <path fill="#4E565A" d="M76 37c1,0 1,0 1,0 1,0 1,0 1,-2 1,-3 1,-3 0,-3 -1,0 -1,0 -1,1 0,1 0,1 0,2 0,0 -1,1 -1,2z"/>
    <path fill="#4E565A" d="M80 31c0,-1 -1,-1 -2,-1 0,0 -1,0 -1,1 0,2 2,2 3,0z"/>
    <path fill="#E8E0D9" d="M37 45c0,0 0,-2 1,-2l-3 0 0 2 2 0z"/>
    <path fill="#D5C1B5" d="M40 43c-2,0 -2,0 -2,0l0 2 2 0 0 -2z"/>
    <polygon fill="#AC886D" points="45,43 43,43 43,45 45,45 "/>
    <polygon fill="#FEFEFE" points="35,43 33,43 32,45 35,45 "/>
    <polygon fill="#C1A591" points="43,43 41,43 40,45 42,45 "/>
    <path fill="#263137" d="M86 35c-1,2 -2,1 -2,-1 1,-2 2,-1 2,1zm-3 2c1,-1 2,1 3,-2 0,-1 0,-1 0,-2 -1,-1 -1,-1 -2,-1l0 0 -1 5z"/>
    <path fill="#515A5E" d="M86 35c0,-2 -1,-3 -2,-1 0,2 1,3 2,1z"/>
    <path fill="#62696C" d="M39 53c0,0 1,0 1,0 1,0 1,0 1,0 0,0 0,0 0,0 0,-1 0,-1 0,-1 0,0 0,0 0,0 -1,0 -1,0 -1,0 0,0 -1,0 -1,0l0 1z"/>
    <path fill="#263238" d="M80 36c0,0 1,0 1,0l0 0c0,0 0,0 0,0l1 -3 -1 0 -1 3z"/>
    <path fill="#959B9E" d="M41 58c0,0 1,-1 1,-2 0,0 0,0 -1,0 0,0 -1,1 0,2 0,0 0,0 0,0z"/>
    <g>
     <path fill="#DCCD05" d="M23 14l2 1 0 1 -1 0 -1 -1c0,0 -1,-1 0,-1z"/>
     <path fill="#DCCD05" d="M4 4c-1,0 -1,1 1,2 0,0 0,0 0,0l2 1c0,0 1,1 1,1l3 2c0,0 2,1 2,1 2,2 5,4 6,5 1,0 1,0 1,1 0,0 1,0 1,0 0,0 1,-1 1,-1l0 -1c1,0 1,0 1,0 0,-1 0,-1 0,-1 0,0 -1,-1 -1,-1l-9 -6c0,0 -1,0 -1,-1 0,0 -1,0 -1,0 0,-1 -3,-2 -3,-3 0,0 -1,0 -1,0 -1,-1 -1,-1 -2,-1 0,0 -1,2 -1,2z"/>
     <path fill="#DCCD05" d="M30 21c0,1 -1,0 -1,0l-4 -2c0,-1 -1,-1 -1,-2 0,0 0,0 0,0 0,0 1,0 1,0 1,1 5,4 5,4zm-9 -3c0,0 2,1 2,1 0,0 3,2 4,2 0,1 1,1 1,2 1,0 1,0 1,0 0,0 0,1 1,1 0,0 0,0 0,1 0,0 0,0 1,0 0,0 0,0 0,-1l2 -2c0,0 0,0 0,0l1 -1c0,0 0,0 0,0 0,-1 0,0 -1,-1 0,0 0,0 -1,0 0,0 -1,0 -1,-1 -1,0 -5,-3 -6,-3 0,0 0,-1 0,-1 0,1 0,1 0,1 -1,0 -2,-1 -2,-1 0,0 -1,1 -1,1 0,1 -1,1 -1,2z"/>
     <path fill="#978D35" d="M31 25l4 0 0 0 0 0c0,0 0,-1 0,-1 0,0 0,-1 0,-2 -1,0 -1,-1 -1,-1 0,0 0,0 0,0l-1 1c0,0 0,0 0,0l-2 2c0,1 0,1 0,1z"/>
     <path fill="#474443" d="M3 0c0,1 -2,2 -2,3l0 0c0,0 1,0 1,1 0,0 0,0 1,0 0,0 0,1 0,0 0,0 1,-1 1,-1 0,0 0,0 0,0 0,-1 1,-1 1,-2 0,0 -1,0 -1,0 0,0 0,-1 -1,-1 0,0 0,0 0,0z"/>
     <path fill="#263238" d="M24 17c0,0 0,0 0,0 0,1 1,1 1,2l4 2c0,0 1,1 1,0 0,0 -4,-3 -5,-4 0,0 -1,0 -1,0z"/>
     <path fill="#EB741E" d="M1 3c0,-1 2,-2 2,-3 -1,0 -1,0 -1,0 -1,0 -2,1 -2,2 1,0 1,0 1,1z"/>
     <path fill="#52595C" d="M21 17l0 1c0,-1 1,-1 1,-2 0,0 2,-1 2,-2l-1 0 -1 2c0,0 -1,1 -1,1z"/>
     <path fill="#52595C" d="M3 4l0 0c1,0 2,-2 2,-2 0,0 0,-1 0,-1 0,1 -1,1 -1,2 0,0 0,0 0,0 0,0 -1,1 -1,1z"/>
     <path fill="#273339" d="M35 25c1,1 1,1 1,1 0,-1 0,-1 -1,-1l0 0z"/>
    </g>
   </g>
   <g>
    <path fill="#EB961E" d="M35 45l-3 0 1 -2 2 0 0 2zm7 0l-2 0 1 -2 2 0 -1 2zm-2 0l-2 0 0 -2c0,0 0,0 2,0l0 2zm5 0l-2 0 0 -2 2 0 0 2zm-8 0l-2 0 0 -2 3 0c-1,0 -1,2 -1,2zm36 -21c0,0 -1,2 -1,2l0 0c0,0 -5,5 -5,5 -2,2 -3,3 -5,5 -2,1 -6,4 -7,1 -2,-1 -1,-5 -2,-7 0,-1 0,-1 0,-1 -1,0 -1,0 -1,1 -1,0 -1,0 -1,0l-2 2c0,0 0,1 0,1 -1,0 -2,1 -3,2 -1,0 -2,-1 -2,-2 1,0 1,0 2,0 -1,0 -1,0 -1,-1 -1,-1 -1,-5 -2,-5 -1,-1 -4,4 -4,4l0 -1c-1,1 -2,2 -2,3 0,-1 1,-2 1,-3l-1 1c1,-1 3,-4 4,-4 0,-1 0,0 1,-1 0,-1 1,-1 1,-1 3,-1 2,9 5,6 1,-1 3,-4 5,-5 1,-1 2,0 2,2 0,2 0,7 1,8 2,1 7,-3 8,-4l5 -4c0,-1 3,-4 3,-4l0 2 1 -2zm-38 0c0,0 0,1 0,1 1,0 1,0 1,1 0,0 0,0 -1,-1l0 0 -4 21 41 0c0,0 6,-28 6,-28l-42 0 -1 6z"/>
    <path fill="#3A454C" d="M78 29c0,0 1,0 1,0 1,0 1,0 1,0 0,1 -1,5 -1,6 0,1 0,2 -1,3 0,0 -1,0 -2,0 0,0 -1,0 -1,-1 0,0 1,-5 2,-6 0,-1 0,-2 1,-2zm-47 -10c0,1 1,1 1,1 1,0 1,0 1,0 1,1 1,0 1,1 0,0 0,1 1,1 0,1 0,2 0,2l1 -6 42 0c0,0 -6,28 -6,28l-41 0 4 -21 -4 0c-1,0 -1,0 -1,0 0,-1 0,-1 0,-1 0,1 -1,1 -1,2l-2 12c0,1 -2,8 -2,8l0 0c0,1 0,1 0,2l0 2c0,1 0,1 0,1 1,1 1,1 2,1l5 0c2,0 5,0 7,0 0,0 1,0 1,0 0,0 0,0 1,0 0,0 0,0 0,0 0,0 9,0 9,0l25 0c1,0 1,-1 1,-1 0,0 0,0 0,0 1,0 1,0 1,0 0,-1 0,-3 1,-4l2 -9c0,-1 0,-1 0,-1 0,0 0,-1 0,-1l1 -3c0,-1 0,-3 0,-4 1,-2 2,-6 2,-8l0 -2c1,-2 1,-3 0,-4 0,0 -1,0 -2,0l-45 0c-2,0 -4,-1 -5,2 0,1 0,2 0,2z"/>
    <path fill="#F4F4F4" d="M25 59c0,0 1,1 1,1 1,0 1,0 1,0 0,1 -2,1 -3,1 -4,0 -4,0 -3,-2 -1,0 -2,0 -3,0 0,0 -1,0 -1,0 -1,0 -1,1 -2,1 1,0 1,0 1,0 0,0 1,0 1,0 0,0 0,0 0,0 0,1 -2,1 -3,1 0,0 -3,0 -3,0 -1,0 0,0 0,-1 -2,0 -8,1 -10,1 -1,0 -1,0 -1,1 0,0 1,0 2,0 2,1 3,1 6,1l9 1c0,0 0,0 0,0 1,0 1,0 1,0 0,0 0,0 1,0 0,0 1,0 1,0 1,0 1,0 2,0 0,0 1,0 1,0 2,0 3,0 5,0 0,0 2,0 2,0 1,0 1,0 2,0l13 0c2,0 4,0 6,0l8 0c0,0 0,0 1,0 1,0 5,0 6,0l3 0c2,0 4,0 6,0 0,0 0,0 0,0l2 -1c1,0 1,0 1,0l6 0c1,0 6,-1 7,-1 0,-1 0,-1 -1,-1 0,0 -1,0 -1,0l-2 -1c-1,0 -2,0 -3,0 0,0 -1,0 -2,0l0 1 -20 0 -33 0c0,0 0,-1 0,-2l11 0 -1 0 -2 0c-2,0 -10,0 -12,0z"/>
    <path fill="#263137" d="M42 56c0,1 -1,2 -1,2l-1 1c-1,1 -4,1 -5,1 -2,0 -4,0 -6,0l0 1 33 0c0,-1 0,-1 0,-2l11 0c0,0 1,-3 2,-3 0,0 2,0 2,0l-35 0c0,0 0,0 0,0 0,0 0,0 0,0z"/>
    <path fill="#FEFEFE" d="M72 26l0 -2c0,0 -3,3 -3,4l-5 4c-1,1 -6,5 -8,4 -1,-1 -1,-6 -1,-8 0,-2 -1,-3 -2,-2 -2,1 -4,4 -5,5 -3,3 -2,-7 -5,-6 0,0 -1,0 -1,1 -1,1 -1,0 -1,1 -1,0 -3,3 -4,4l1 -1c0,1 -1,2 -1,3 0,-1 1,-2 2,-3l0 1c0,0 3,-5 4,-4 1,0 1,4 2,5 0,1 0,1 1,1 -1,0 -1,0 -2,0 0,1 1,2 2,2 1,-1 2,-2 3,-2 0,0 0,-1 0,-1l2 -2c0,0 0,0 1,0 0,-1 0,-1 1,-1 0,0 0,0 0,1 1,2 0,6 2,7 1,3 5,0 7,-1 2,-2 3,-3 5,-5 0,0 5,-5 5,-5l0 0c0,0 1,-2 1,-2l-1 2z"/>
    <path fill="#515B60" d="M77 56c0,0 -2,0 -2,0 -1,0 -2,3 -2,3l-11 0c0,1 0,1 0,2l20 0 0 -1 0 -4 -3 0c0,0 0,0 0,0 2,0 2,3 0,3 0,0 0,0 0,0 0,0 0,0 0,0l0 1c0,0 0,0 0,0 -1,0 -2,0 -2,-1 -1,-1 0,-2 0,-3 0,0 0,0 0,0 0,-1 0,0 0,-1l0 1z"/>
    <path fill="#515A5E" d="M82 33l-1 3c0,0 0,0 0,0l-1 6c0,1 0,1 1,1 1,0 1,0 2,-2 0,-1 0,-4 0,-4l1 -5c0,-1 1,-5 1,-6 1,-1 0,-1 -1,-1 -1,0 -1,1 -1,2l-1 6z"/>
    <path fill="#616A6E" d="M76 37c0,-1 1,-2 1,-2 0,-1 0,-1 0,-2 0,-1 0,-1 1,-1 1,0 1,0 0,3 0,2 0,2 -1,2 0,0 0,0 -1,0zm4 -6c-1,2 -3,2 -3,0 0,-1 1,-1 1,-1 1,0 2,0 2,1zm-2 -2c-1,0 -1,1 -1,2 -1,1 -2,6 -2,6 0,1 1,1 1,1 1,0 2,0 2,0 1,-1 1,-2 1,-3 0,-1 1,-5 1,-6 0,0 0,0 -1,0 0,0 -1,0 -1,0z"/>
    <path fill="#7B8488" d="M37 59l2 0 1 0 -11 0c0,1 0,2 0,2l0 -1c2,0 4,0 6,0 1,0 4,0 5,-1l1 -1c0,0 0,0 0,0 -1,-1 0,-2 0,-2 1,0 1,0 1,0 0,0 0,0 0,0 0,0 0,0 0,0 0,-1 -1,-3 -1,-3 0,0 0,0 -1,0 0,0 -1,0 -1,0 0,1 1,3 1,3 0,0 -1,1 -1,1 0,0 0,1 0,2 0,0 -2,0 -2,0z"/>
    <path fill="#7B8488" d="M76 53c0,1 1,2 1,2 0,1 0,0 0,1 0,0 0,0 0,0 0,1 -1,2 0,3 0,1 1,1 2,1 0,0 0,0 0,0l0 -1c0,0 0,0 0,0 0,0 0,0 0,0 -2,0 -1,-3 0,-3 0,0 0,0 0,0 0,-1 0,-1 0,-2 0,0 0,-1 0,-1 -1,0 -2,0 -2,0 -1,0 -1,0 -1,0z"/>
    <path fill="#62696C" d="M76 51c0,1 0,2 0,2l0 0c0,0 0,0 1,0 0,0 1,0 2,0 0,0 0,0 0,-1l-1 -5c-1,1 -1,3 -1,4 0,0 0,0 -1,0 0,0 0,0 0,0z"/>
    <path fill="#959B9E" d="M79 59c2,0 2,-3 0,-3 -1,0 -2,3 0,3z"/>
    <path fill="#4E565A" d="M76 37c1,0 1,0 1,0 1,0 1,0 1,-2 1,-3 1,-3 0,-3 -1,0 -1,0 -1,1 0,1 0,1 0,2 0,0 -1,1 -1,2z"/>
    <path fill="#4E565A" d="M80 31c0,-1 -1,-1 -2,-1 0,0 -1,0 -1,1 0,2 2,2 3,0z"/>
    <path fill="#E8E0D9" d="M37 45c0,0 0,-2 1,-2l-3 0 0 2 2 0z"/>
    <path fill="#D5C1B5" d="M40 43c-2,0 -2,0 -2,0l0 2 2 0 0 -2z"/>
    <polygon fill="#AC886D" points="45,43 43,43 43,45 45,45 "/>
    <polygon fill="#FEFEFE" points="35,43 33,43 32,45 35,45 "/>
    <polygon fill="#C1A591" points="43,43 41,43 40,45 42,45 "/>
    <path fill="#263137" d="M86 35c-1,2 -2,1 -2,-1 1,-2 2,-1 2,1zm-3 2c1,-1 2,1 3,-2 0,-1 0,-1 0,-2 -1,-1 -1,-1 -2,-1l0 0 -1 5z"/>
    <path fill="#515A5E" d="M86 35c0,-2 -1,-3 -2,-1 0,2 1,3 2,1z"/>
    <path fill="#62696C" d="M39 53c0,0 1,0 1,0 1,0 1,0 1,0 0,0 0,0 0,0 0,-1 0,-1 0,-1 0,0 0,0 0,0 -1,0 -1,0 -1,0 0,0 -1,0 -1,0l0 1z"/>
    <path fill="#263238" d="M80 36c0,0 1,0 1,0l0 0c0,0 0,0 0,0l1 -3 -1 0 -1 3z"/>
    <path fill="#959B9E" d="M41 58c0,0 1,-1 1,-2 0,0 0,0 -1,0 0,0 -1,1 0,2 0,0 0,0 0,0z"/>
    <g>
     <path fill="#DCCD05" d="M23 14l2 1 0 1 -1 0 -1 -1c0,0 -1,-1 0,-1z"/>
     <path fill="#DCCD05" d="M4 4c-1,0 -1,1 1,2 0,0 0,0 0,0l2 1c0,0 1,1 1,1l3 2c0,0 2,1 2,1 2,2 5,4 6,5 1,0 1,0 1,1 0,0 1,0 1,0 0,0 1,-1 1,-1l0 -1c1,0 1,0 1,0 0,-1 0,-1 0,-1 0,0 -1,-1 -1,-1l-9 -6c0,0 -1,0 -1,-1 0,0 -1,0 -1,0 0,-1 -3,-2 -3,-3 0,0 -1,0 -1,0 -1,-1 -1,-1 -2,-1 0,0 -1,2 -1,2z"/>
     <path fill="#DCCD05" d="M30 21c0,1 -1,0 -1,0l-4 -2c0,-1 -1,-1 -1,-2 0,0 0,0 0,0 0,0 1,0 1,0 1,1 5,4 5,4zm-9 -3c0,0 2,1 2,1 0,0 3,2 4,2 0,1 1,1 1,2 1,0 1,0 1,0 0,0 0,1 1,1 0,0 0,0 0,1 0,0 0,0 1,0 0,0 0,0 0,-1l2 -2c0,0 0,0 0,0l1 -1c0,0 0,0 0,0 0,-1 0,0 -1,-1 0,0 0,0 -1,0 0,0 -1,0 -1,-1 -1,0 -5,-3 -6,-3 0,0 0,-1 0,-1 0,1 0,1 0,1 -1,0 -2,-1 -2,-1 0,0 -1,1 -1,1 0,1 -1,1 -1,2z"/>
     <path fill="#978D35" d="M31 25l4 0 0 0 0 0c0,0 0,-1 0,-1 0,0 0,-1 0,-2 -1,0 -1,-1 -1,-1 0,0 0,0 0,0l-1 1c0,0 0,0 0,0l-2 2c0,1 0,1 0,1z"/>
     <path fill="#474443" d="M3 0c0,1 -2,2 -2,3l0 0c0,0 1,0 1,1 0,0 0,0 1,0 0,0 0,1 0,0 0,0 1,-1 1,-1 0,0 0,0 0,0 0,-1 1,-1 1,-2 0,0 -1,0 -1,0 0,0 0,-1 -1,-1 0,0 0,0 0,0z"/>
     <path fill="#263238" d="M24 17c0,0 0,0 0,0 0,1 1,1 1,2l4 2c0,0 1,1 1,0 0,0 -4,-3 -5,-4 0,0 -1,0 -1,0z"/>
     <path fill="#EB741E" d="M1 3c0,-1 2,-2 2,-3 -1,0 -1,0 -1,0 -1,0 -2,1 -2,2 1,0 1,0 1,1z"/>
     <path fill="#52595C" d="M21 17l0 1c0,-1 1,-1 1,-2 0,0 2,-1 2,-2l-1 0 -1 2c0,0 -1,1 -1,1z"/>
     <path fill="#52595C" d="M3 4l0 0c1,0 2,-2 2,-2 0,0 0,-1 0,-1 0,1 -1,1 -1,2 0,0 0,0 0,0 0,0 -1,1 -1,1z"/>
     <path fill="#273339" d="M35 25c1,1 1,1 1,1 0,-1 0,-1 -1,-1l0 0z"/>
    </g>
   </g>
  </g>
 </g>
</svg>
